<svg xmlns="http://www.w3.org/2000/svg">
    <path d="M12,1.3c6.1,0,11,4.9,11,11c0,4.7-3,8.9-7.5,10.4c-0.5,0.1-0.8-0.2-0.8-0.5c0-0.4,0-1.6,0-3c0-1-0.3-1.7-0.7-2
		c2.4-0.3,5-1.2,5-5.4c0-1.2-0.4-2.2-1.1-3c0.1-0.3,0.5-1.4-0.1-2.9c0,0-0.9-0.3-3,1.1C13.9,6.7,13,6.6,12,6.6S10.2,6.7,9.3,7
		c-2.1-1.4-3-1.1-3-1.1C5.6,7.3,6,8.5,6.1,8.7C5.4,9.5,5,10.5,5,11.7c0,4.2,2.6,5.2,5,5.4c-0.3,0.3-0.6,0.8-0.7,1.5
		c-0.6,0.3-2.2,0.8-3.2-0.9c-0.2-0.3-0.8-1.1-1.7-1.1c-0.9,0-0.4,0.5,0,0.7c0.5,0.3,1,1.2,1.1,1.6c0.2,0.6,0.9,1.8,3.7,1.3
		c0,0.9,0,1.8,0,2c0,0.3-0.2,0.6-0.8,0.5C4,21.2,1,17,1,12.3C1,6.2,5.9,1.3,12,1.3z"
          fill="currentColor"/>
</svg>