<?xml version="1.0" encoding="utf-8"?>
<!-- Generator: Adobe Illustrator 27.6.1, SVG Export Plug-In . SVG Version: 6.00 Build 0)  -->
<svg version="1.1" id="Layer_1" xmlns="http://www.w3.org/2000/svg" xmlns:xlink="http://www.w3.org/1999/xlink" x="0px" y="0px"
	 viewBox="0 0 24 24" style="enable-background:new 0 0 24 24;" xml:space="preserve">
<style type="text/css">
	.st0{fill:none;}
</style>
<rect class="st0" width="24" height="24"/>
<path d="M12,1.29c6.1,0,11,4.9,11,11c0,4.7-3,8.9-7.5,10.4c-0.5,0.1-0.8-0.2-0.8-0.5c0-0.4,0-1.6,0-3c0-1-0.3-1.7-0.7-2
	c2.4-0.3,5-1.2,5-5.4c0-1.2-0.4-2.2-1.1-3c0.1-0.3,0.5-1.4-0.1-2.9c0,0-0.9-0.3-3,1.1c-0.9-0.3-1.8-0.4-2.8-0.4s-1.8,0.1-2.7,0.4
	c-2.1-1.4-3-1.1-3-1.1c-0.7,1.4-0.3,2.6-0.2,2.8c-0.7,0.8-1.1,1.8-1.1,3c0,4.2,2.6,5.2,5,5.4c-0.3,0.3-0.6,0.8-0.7,1.5
	c-0.6,0.3-2.2,0.8-3.2-0.9c-0.2-0.3-0.8-1.1-1.7-1.1s-0.4,0.5,0,0.7c0.5,0.3,1,1.2,1.1,1.6c0.2,0.6,0.9,1.8,3.7,1.3c0,0.9,0,1.8,0,2
	c0,0.3-0.2,0.6-0.8,0.5C4,21.19,1,16.99,1,12.29C1,6.19,5.9,1.29,12,1.29z"/>
</svg>
