<?xml version="1.0" encoding="utf-8"?>
<!-- Generator: Adobe Illustrator 26.4.1, SVG Export Plug-In . SVG Version: 6.00 Build 0)  -->
<svg version="1.1" id="Layer_1" xmlns="http://www.w3.org/2000/svg" xmlns:xlink="http://www.w3.org/1999/xlink" x="0px" y="0px"
	 viewBox="0 0 24 24" style="enable-background:new 0 0 24 24;" xml:space="preserve">
<style type="text/css">
	.st0{fill:none;stroke:#000000;stroke-width:2;stroke-linecap:round;}
</style>
<g>
	<path class="st0" d="M2.7,3.8h0.8 M2.7,4.6h0.8 M9.8,4.2H22 M2.7,11.6h0.8 M2.7,12.4h0.8 M2.7,19.4h0.8 M2.7,20.2h0.8 M9.8,12H22
		 M9.8,19.8H22 M4.2,4.2c0,0.6-0.5,1.1-1.1,1.1S2,4.8,2,4.2s0.5-1.1,1.1-1.1S4.2,3.6,4.2,4.2z M4.2,12c0,0.6-0.5,1.1-1.1,1.1
		S2,12.6,2,12c0-0.6,0.5-1.1,1.1-1.1S4.2,11.4,4.2,12z M4.2,19.8c0,0.6-0.5,1.1-1.1,1.1S2,20.4,2,19.8s0.5-1.1,1.1-1.1
		S4.2,19.2,4.2,19.8z"/>
</g>
</svg>
